{
  "accessors": [
    {
      "bufferView": 2,
      "componentType": 5126,
      "count": 5397,
      "max": [
        0.5116116404533386,
        3.706545114517212,
        0.5537402629852295
      ],
      "min": [
        -0.5216916799545288,
        -0.05260133743286133,
        -0.48243290185928345
      ],
      "type": "VEC3"
    },
    {
      "bufferView": 2,
      "byteOffset": 64764,
      "componentType": 5126,
      "count": 5397,
      "max": [
        1.0,
        0.9999266862869263,
        1.0
      ],
      "min": [
        -1.0,
        -1.0,
        -1.0
      ],
      "type": "VEC3"
    },
    {
      "bufferView": 3,
      "componentType": 5126,
      "count": 5397,
      "max": [
        0.9991075992584229,
        0.9999757409095764,
        0.9999246001243591,
        1.0
      ],
      "min": [
        -0.999991774559021,
        -1.0,
        -0.9999243021011353,
        1.0
      ],
      "type": "VEC4"
    },
    {
      "bufferView": 1,
      "componentType": 5126,
      "count": 5397,
      "max": [
        0.9564186930656433,
        0.9972361326217651
      ],
      "min": [
        0.002755344146862626,
        0.0027557886205613613
      ],
      "type": "VEC2"
    },
    {
      "bufferView": 1,
      "byteOffset": 43176,
      "componentType": 5126,
      "count": 5397,
      "max": [
        0.9564186930656433,
        0.9972361326217651
      ],
      "min": [
        0.002755344146862626,
        0.0027557886205613613
      ],
      "type": "VEC2"
    },
    {
      "bufferView": 1,
      "byteOffset": 86352,
      "componentType": 5126,
      "count": 5397,
      "max": [
        0.9564186930656433,
        0.9972361326217651
      ],
      "min": [
        0.002755344146862626,
        0.0027557886205613613
      ],
      "type": "VEC2"
    },
    {
      "bufferView": 1,
      "byteOffset": 129528,
      "componentType": 5126,
      "count": 5397,
      "max": [
        0.9564186930656433,
        0.9972361326217651
      ],
      "min": [
        0.002755344146862626,
        0.0027557886205613613
      ],
      "type": "VEC2"
    },
    {
      "bufferView": 0,
      "componentType": 5125,
      "count": 24456,
      "type": "SCALAR"
    }
  ],
  "asset": {
    "extras": {
      "author": "Bajeel (https://sketchfab.com/Bajeel)",
      "license": "CC-BY-4.0 (http://creativecommons.org/licenses/by/4.0/)",
      "source": "https://sketchfab.com/3d-models/plastic-water-bottle-07b07f7292ed41019a8b6aebd98a5c29",
      "title": "Plastic Water Bottle"
    },
    "generator": "Sketchfab-12.67.0",
    "version": "2.0"
  },
  "bufferViews": [
    {
      "buffer": 0,
      "byteLength": 97824,
      "name": "floatBufferViews",
      "target": 34963
    },
    {
      "buffer": 0,
      "byteLength": 172704,
      "byteOffset": 97824,
      "byteStride": 8,
      "name": "floatBufferViews",
      "target": 34962
    },
    {
      "buffer": 0,
      "byteLength": 129528,
      "byteOffset": 270528,
      "byteStride": 12,
      "name": "floatBufferViews",
      "target": 34962
    },
    {
      "buffer": 0,
      "byteLength": 86352,
      "byteOffset": 400056,
      "byteStride": 16,
      "name": "floatBufferViews",
      "target": 34962
    }
  ],
  "buffers": [
    {
      "byteLength": 486408,
      "uri": "scene.bin"
    }
  ],
  "images": [
    {
      "uri": "textures/Material_baseColor.png"
    },
    {
      "uri": "textures/Material_metallicRoughness.png"
    },
    {
      "uri": "textures/Material_normal.png"
    }
  ],
  "materials": [
    {
      "alphaMode": "BLEND",
      "doubleSided": true,
      "name": "Material",
      "normalTexture": {
        "index": 2
      },
      "pbrMetallicRoughness": {
        "baseColorTexture": {
          "index": 0
        },
        "metallicRoughnessTexture": {
          "index": 1
        }
      }
    }
  ],
  "meshes": [
    {
      "name": "Object_0",
      "primitives": [
        {
          "attributes": {
            "NORMAL": 1,
            "POSITION": 0,
            "TANGENT": 2,
            "TEXCOORD_0": 3,
            "TEXCOORD_1": 4,
            "TEXCOORD_2": 5,
            "TEXCOORD_3": 6
          },
          "indices": 7,
          "material": 0,
          "mode": 4
        }
      ]
    }
  ],
  "nodes": [
    {
      "children": [
        1
      ],
      "matrix": [
        1.0,
        0.0,
        0.0,
        0.0,
        0.0,
        2.220446049250313e-16,
        -1.0,
        0.0,
        0.0,
        1.0,
        2.220446049250313e-16,
        0.0,
        0.0,
        0.0,
        0.0,
        1.0
      ],
      "name": "Sketchfab_model"
    },
    {
      "children": [
        2
      ],
      "name": "root"
    },
    {
      "children": [
        3
      ],
      "matrix": [
        1.0,
        0.0,
        0.0,
        0.0,
        0.0,
        2.220446049250313e-16,
        1.0,
        0.0,
        0.0,
        -1.0,
        2.220446049250313e-16,
        0.0,
        0.0,
        0.0,
        0.0,
        1.0
      ],
      "name": "GLTF_SceneRootNode"
    },
    {
      "children": [
        4
      ],
      "matrix": [
        -0.9263489667257485,
        0.0,
        0.37666641985467475,
        0.0,
        0.0,
        1.0,
        0.0,
        0.0,
        -0.37666641985467475,
        0.0,
        -0.9263489667257485,
        0.0,
        0.0046700239181518555,
        0.0479048490524292,
        -0.03671860694885254,
        1.0
      ],
      "name": "water bottle_0"
    },
    {
      "mesh": 0,
      "name": "Object_4"
    }
  ],
  "samplers": [
    {
      "magFilter": 9729,
      "minFilter": 9987,
      "wrapS": 10497,
      "wrapT": 10497
    }
  ],
  "scene": 0,
  "scenes": [
    {
      "name": "Sketchfab_Scene",
      "nodes": [
        0
      ]
    }
  ],
  "textures": [
    {
      "sampler": 0,
      "source": 0
    },
    {
      "sampler": 0,
      "source": 1
    },
    {
      "sampler": 0,
      "source": 2
    }
  ]
}
